<svg width="65" height="64" viewBox="0 0 65 64" fill="none" xmlns="http://www.w3.org/2000/svg">
<path d="M32.5146 7.70996C34.5459 7.70996 36.228 6.02783 36.228 3.96484C36.228 1.93359 34.5459 0.251465 32.5146 0.251465C30.4834 0.251465 28.8013 1.93359 28.8013 3.96484C28.8013 6.02783 30.4834 7.70996 32.5146 7.70996ZM49.7803 14.8511C51.2085 16.2793 53.5889 16.2793 55.0171 14.8511C56.5088 13.3911 56.5088 11.0425 55.0171 9.58252C53.5889 8.12256 51.2085 8.12256 49.7803 9.58252C48.3203 11.0425 48.3203 13.3911 49.7803 14.8511ZM9.98047 14.8828C11.4404 16.311 13.7891 16.311 15.2173 14.8828C16.709 13.3911 16.709 11.0742 15.2173 9.61426C13.7891 8.1543 11.4404 8.1543 9.98047 9.61426C8.52051 11.0742 8.52051 13.3911 9.98047 14.8828ZM32.5146 48.335C41.3379 48.335 48.7012 41.0034 48.7012 32.1484C48.7012 23.3252 41.3379 15.9937 32.5146 15.9937C23.6914 15.9937 16.3599 23.3252 16.3599 32.1484C16.3599 41.0034 23.6914 48.335 32.5146 48.335ZM4.39453 35.8618C6.42578 35.8618 8.10791 34.1797 8.10791 32.1167C8.10791 30.0854 6.42578 28.4033 4.39453 28.4033C2.36328 28.4033 0.681152 30.0854 0.681152 32.1167C0.681152 34.1797 2.36328 35.8618 4.39453 35.8618ZM60.6348 36.084C62.666 36.084 64.3481 34.4019 64.3481 32.3389C64.3481 30.3076 62.666 28.6255 60.6348 28.6255C58.6035 28.6255 56.9214 30.3076 56.9214 32.3389C56.9214 34.4019 58.6035 36.084 60.6348 36.084ZM10.0122 54.6191C11.4722 56.0791 13.8208 56.0791 15.249 54.6191C16.709 53.1592 16.709 50.8105 15.249 49.3506C13.8208 47.9224 11.4722 47.9224 10.0122 49.3506C8.52051 50.8105 8.52051 53.1592 10.0122 54.6191ZM49.5898 54.7778C51.0498 56.2378 53.3984 56.2378 54.8584 54.7778C56.3184 53.3496 56.3184 51.001 54.8584 49.541C53.3984 48.0811 51.0498 48.0811 49.5898 49.541C48.1299 51.001 48.1299 53.3496 49.5898 54.7778ZM32.5146 63.9185C34.5459 63.9185 36.228 62.2681 36.228 60.2051C36.228 58.1738 34.5459 56.4917 32.5146 56.4917C30.4834 56.4917 28.8013 58.1738 28.8013 60.2051C28.8013 62.2681 30.4834 63.9185 32.5146 63.9185Z" fill="black"/>
</svg>
